<svg xmlns="http://www.w3.org/2000/svg" width="503" height="496" viewBox="0 0 503 496" version="1.1"><path d="M -0 248.002 L -0 496.004 251.750 495.752 L 503.500 495.500 503.752 247.750 L 504.004 0 252.002 0 L 0 0 -0 248.002 M 0.492 248.500 C 0.492 384.900, 0.608 440.551, 0.750 372.170 C 0.892 303.788, 0.892 192.188, 0.750 124.170 C 0.608 56.151, 0.492 112.100, 0.492 248.500 M 238 59.976 C 215.310 62.448, 187.199 70.840, 170 80.277 C 157.948 86.890, 152 90.499, 152 91.199 C 152 91.640, 151.427 92, 150.726 92 C 148.319 92, 128.490 108.254, 118.500 118.416 C 113 124.011, 106.142 131.718, 103.260 135.544 C 100.378 139.370, 97.678 142.950, 97.260 143.500 C 96.842 144.050, 95.332 146.300, 93.904 148.500 C 76.732 174.955, 66.795 201.552, 62.420 232.770 C 60.455 246.786, 60.968 276.179, 63.425 290.442 C 71.477 337.175, 94.378 377.984, 129.605 408.371 C 139.509 416.914, 139.581 416.969, 150.507 424.377 C 170.269 437.778, 195.523 448.159, 221.799 453.684 C 233.589 456.162, 236.293 456.356, 259.500 456.376 C 286.784 456.400, 292.417 455.718, 313.500 449.841 C 359.255 437.086, 398.844 408.138, 426.361 367.316 C 438.863 348.768, 449.402 323.269, 454.803 298.500 C 458.930 279.571, 459.810 244.933, 456.624 226.782 C 454.150 212.690, 448.504 192.024, 445.071 184.500 C 440.711 174.942, 433.618 160.403, 433.119 160 C 432.779 159.725, 431.396 157.475, 430.048 155 C 427.027 149.457, 419.446 138.413, 417.006 136 C 416.728 135.725, 414.701 133.250, 412.503 130.500 C 407.422 124.144, 393.971 110.703, 387.486 105.500 C 384.744 103.300, 382.275 101.260, 382 100.966 C 378.434 97.157, 357.925 84.344, 345.968 78.455 C 336.799 73.939, 325.035 69.404, 315 66.518 C 298.136 61.667, 285.720 59.916, 265.500 59.535 C 254.500 59.328, 242.125 59.527, 238 59.976 M 253.961 157.821 C 249.253 160.299, 241.623 164.592, 235 168.491 C 231.975 170.271, 227.025 173.087, 224 174.748 C 211.477 181.623, 203.606 186.079, 202.585 186.869 C 201.988 187.331, 198.350 189.403, 194.500 191.473 C 179.798 199.378, 172.168 204.336, 171.101 206.678 C 169.568 210.043, 169.617 246.409, 171.159 249.316 C 172.578 251.990, 174.280 253.240, 184.488 259.097 C 188.895 261.625, 195.875 265.724, 200 268.205 C 220.959 280.813, 233.353 288.034, 251.138 298 C 260.896 303.468, 263.113 303.321, 274.640 296.442 C 284.685 290.448, 285.288 289.914, 284.459 287.755 C 283.942 286.406, 272.832 279.352, 263 274.130 C 258.944 271.976, 251.203 267.431, 229.267 254.322 C 225.289 251.945, 221.792 250, 221.496 250 C 221.199 250, 219.054 248.799, 216.729 247.330 C 214.403 245.862, 210.925 243.688, 209 242.500 C 200.234 237.087, 198.040 235.382, 197.055 233.221 C 194.299 227.173, 197.203 221.348, 205.282 216.718 C 207.602 215.389, 215.054 211.083, 221.843 207.151 C 228.631 203.218, 234.305 200, 234.451 200 C 234.596 200, 239.570 197.085, 245.502 193.522 C 251.435 189.958, 257.163 186.766, 258.231 186.427 C 260.499 185.707, 268.458 189.438, 282.699 197.897 C 303.381 210.181, 313.094 215.851, 328 224.340 C 348.825 236.200, 349.078 236.322, 350.331 235.066 C 351.810 233.583, 351.490 212.639, 349.931 208.850 C 349.045 206.698, 340.290 200, 338.364 200 C 338.087 200, 335.979 198.711, 333.680 197.135 C 331.381 195.559, 327.250 193.075, 324.500 191.615 C 321.750 190.156, 316.125 186.984, 312 184.566 C 307.875 182.149, 301.125 178.264, 297 175.933 C 292.875 173.602, 286.262 169.734, 282.304 167.338 C 271.237 160.637, 261.939 156, 259.569 156 C 258.389 156, 255.865 156.820, 253.961 157.821 M 254 216.921 C 252.075 218.035, 247.496 220.572, 243.824 222.558 C 237.555 225.950, 235.360 228.156, 236.469 229.950 C 236.731 230.373, 241.120 233.119, 246.222 236.053 C 251.325 238.986, 259.775 243.933, 265 247.045 C 270.225 250.158, 276.525 253.828, 279 255.202 C 281.475 256.575, 287.325 259.966, 292 262.737 C 296.675 265.508, 304.901 270.335, 310.280 273.464 C 321.941 280.246, 325 283.223, 325 287.789 C 325 292.890, 322.486 296.628, 316.466 300.479 C 313.438 302.415, 310.781 304, 310.560 304 C 310.013 304, 293.197 313.691, 278.026 322.750 C 271.165 326.847, 264.130 330.429, 262.392 330.711 C 259.942 331.109, 257.690 330.327, 252.366 327.231 C 248.590 325.035, 243.925 322.384, 242 321.339 C 240.075 320.295, 232.875 316.122, 226 312.068 C 183.318 286.895, 174.154 281.824, 172.061 282.225 C 170.781 282.470, 170.448 284.500, 170.209 293.512 C 169.871 306.288, 170.241 308.353, 173.349 311.056 C 175.689 313.090, 193.632 324, 194.638 324 C 194.942 324, 196.386 324.835, 197.846 325.856 C 199.306 326.877, 206.125 330.858, 213 334.702 C 219.875 338.547, 227.075 342.612, 229 343.736 C 244.394 352.728, 250.168 356, 250.641 356 C 250.944 356, 252.508 356.938, 254.117 358.083 C 255.979 359.409, 258.589 360.167, 261.295 360.167 C 265.702 360.167, 265.426 360.305, 300.500 340.506 C 307.100 336.780, 314.975 332.374, 318 330.713 C 321.025 329.053, 324.694 326.863, 326.154 325.847 C 327.614 324.831, 329.056 324, 329.359 324 C 330.499 324, 347.023 314.120, 348.724 312.421 C 350.284 310.864, 350.540 308.203, 350.825 290.574 C 351.220 266.153, 351.312 266.413, 339.903 260 C 335.499 257.525, 328.207 253.226, 323.698 250.448 C 319.189 247.669, 313.025 244.072, 310 242.455 C 306.975 240.838, 304.275 239.237, 304 238.897 C 303.725 238.557, 301.925 237.485, 300 236.514 C 296.311 234.654, 285.201 228.053, 283.500 226.711 C 282.950 226.277, 278.568 223.695, 273.762 220.975 C 263.173 214.979, 258.877 214.098, 254 216.921" stroke="none" fill="#fbfbfb" fill-rule="evenodd"/><path d="M 238 59.976 C 215.310 62.448, 187.199 70.840, 170 80.277 C 157.948 86.890, 152 90.499, 152 91.199 C 152 91.640, 151.427 92, 150.726 92 C 148.319 92, 128.490 108.254, 118.500 118.416 C 113 124.011, 106.142 131.718, 103.260 135.544 C 100.378 139.370, 97.678 142.950, 97.260 143.500 C 96.842 144.050, 95.332 146.300, 93.904 148.500 C 76.732 174.955, 66.795 201.552, 62.420 232.770 C 60.455 246.786, 60.968 276.179, 63.425 290.442 C 71.477 337.175, 94.378 377.984, 129.605 408.371 C 139.509 416.914, 139.581 416.969, 150.507 424.377 C 170.269 437.778, 195.523 448.159, 221.799 453.684 C 233.589 456.162, 236.293 456.356, 259.500 456.376 C 286.784 456.400, 292.417 455.718, 313.500 449.841 C 359.255 437.086, 398.844 408.138, 426.361 367.316 C 438.863 348.768, 449.402 323.269, 454.803 298.500 C 458.930 279.571, 459.810 244.933, 456.624 226.782 C 454.150 212.690, 448.504 192.024, 445.071 184.500 C 440.711 174.942, 433.618 160.403, 433.119 160 C 432.779 159.725, 431.396 157.475, 430.048 155 C 427.027 149.457, 419.446 138.413, 417.006 136 C 416.728 135.725, 414.701 133.250, 412.503 130.500 C 407.422 124.144, 393.971 110.703, 387.486 105.500 C 384.744 103.300, 382.275 101.260, 382 100.966 C 378.434 97.157, 357.925 84.344, 345.968 78.455 C 336.799 73.939, 325.035 69.404, 315 66.518 C 298.136 61.667, 285.720 59.916, 265.500 59.535 C 254.500 59.328, 242.125 59.527, 238 59.976 M 253.961 157.821 C 249.253 160.299, 241.623 164.592, 235 168.491 C 231.975 170.271, 227.025 173.087, 224 174.748 C 211.477 181.623, 203.606 186.079, 202.585 186.869 C 201.988 187.331, 198.350 189.403, 194.500 191.473 C 179.798 199.378, 172.168 204.336, 171.101 206.678 C 169.568 210.043, 169.617 246.409, 171.159 249.316 C 172.578 251.990, 174.280 253.240, 184.488 259.097 C 188.895 261.625, 195.875 265.724, 200 268.205 C 220.959 280.813, 233.353 288.034, 251.138 298 C 260.896 303.468, 263.113 303.321, 274.640 296.442 C 284.685 290.448, 285.288 289.914, 284.459 287.755 C 283.942 286.406, 272.832 279.352, 263 274.130 C 258.944 271.976, 251.203 267.431, 229.267 254.322 C 225.289 251.945, 221.792 250, 221.496 250 C 221.199 250, 219.054 248.799, 216.729 247.330 C 214.403 245.862, 210.925 243.688, 209 242.500 C 200.234 237.087, 198.040 235.382, 197.055 233.221 C 194.299 227.173, 197.203 221.348, 205.282 216.718 C 207.602 215.389, 215.054 211.083, 221.843 207.151 C 228.631 203.218, 234.305 200, 234.451 200 C 234.596 200, 239.570 197.085, 245.502 193.522 C 251.435 189.958, 257.163 186.766, 258.231 186.427 C 260.499 185.707, 268.458 189.438, 282.699 197.897 C 303.381 210.181, 313.094 215.851, 328 224.340 C 348.825 236.200, 349.078 236.322, 350.331 235.066 C 351.810 233.583, 351.490 212.639, 349.931 208.850 C 349.045 206.698, 340.290 200, 338.364 200 C 338.087 200, 335.979 198.711, 333.680 197.135 C 331.381 195.559, 327.250 193.075, 324.500 191.615 C 321.750 190.156, 316.125 186.984, 312 184.566 C 307.875 182.149, 301.125 178.264, 297 175.933 C 292.875 173.602, 286.262 169.734, 282.304 167.338 C 271.237 160.637, 261.939 156, 259.569 156 C 258.389 156, 255.865 156.820, 253.961 157.821 M 254 216.921 C 252.075 218.035, 247.496 220.572, 243.824 222.558 C 237.555 225.950, 235.360 228.156, 236.469 229.950 C 236.731 230.373, 241.120 233.119, 246.222 236.053 C 251.325 238.986, 259.775 243.933, 265 247.045 C 270.225 250.158, 276.525 253.828, 279 255.202 C 281.475 256.575, 287.325 259.966, 292 262.737 C 296.675 265.508, 304.901 270.335, 310.280 273.464 C 321.941 280.246, 325 283.223, 325 287.789 C 325 292.890, 322.486 296.628, 316.466 300.479 C 313.438 302.415, 310.781 304, 310.560 304 C 310.013 304, 293.197 313.691, 278.026 322.750 C 271.165 326.847, 264.130 330.429, 262.392 330.711 C 259.942 331.109, 257.690 330.327, 252.366 327.231 C 248.590 325.035, 243.925 322.384, 242 321.339 C 240.075 320.295, 232.875 316.122, 226 312.068 C 183.318 286.895, 174.154 281.824, 172.061 282.225 C 170.781 282.470, 170.448 284.500, 170.209 293.512 C 169.871 306.288, 170.241 308.353, 173.349 311.056 C 175.689 313.090, 193.632 324, 194.638 324 C 194.942 324, 196.386 324.835, 197.846 325.856 C 199.306 326.877, 206.125 330.858, 213 334.702 C 219.875 338.547, 227.075 342.612, 229 343.736 C 244.394 352.728, 250.168 356, 250.641 356 C 250.944 356, 252.508 356.938, 254.117 358.083 C 255.979 359.409, 258.589 360.167, 261.295 360.167 C 265.702 360.167, 265.426 360.305, 300.500 340.506 C 307.100 336.780, 314.975 332.374, 318 330.713 C 321.025 329.053, 324.694 326.863, 326.154 325.847 C 327.614 324.831, 329.056 324, 329.359 324 C 330.499 324, 347.023 314.120, 348.724 312.421 C 350.284 310.864, 350.540 308.203, 350.825 290.574 C 351.220 266.153, 351.312 266.413, 339.903 260 C 335.499 257.525, 328.207 253.226, 323.698 250.448 C 319.189 247.669, 313.025 244.072, 310 242.455 C 306.975 240.838, 304.275 239.237, 304 238.897 C 303.725 238.557, 301.925 237.485, 300 236.514 C 296.311 234.654, 285.201 228.053, 283.500 226.711 C 282.950 226.277, 278.568 223.695, 273.762 220.975 C 263.173 214.979, 258.877 214.098, 254 216.921" stroke="none" fill="#36c5c0" fill-rule="evenodd"/></svg>